<?xml version="1.0" standalone="no"?>
<!DOCTYPE svg PUBLIC "-//W3C//DTD SVG 20010904//EN"
 "http://www.w3.org/TR/2001/REC-SVG-20010904/DTD/svg10.dtd">
<svg version="1.0" xmlns="http://www.w3.org/2000/svg"
 width="1024.000000pt" height="1024.000000pt" viewBox="0 0 1024.000000 1024.000000"
 preserveAspectRatio="xMidYMid meet">
<metadata>
Created by potrace 1.14, written by Peter Selinger 2001-2017
</metadata>
<g transform="translate(0.000000,1024.000000) scale(0.100000,-0.100000)"
fill="#000000" stroke="none">
<path d="M2670 9233 c-436 -46 -825 -229 -1131 -533 -266 -265 -435 -589 -516
-990 -16 -79 -17 -270 -20 -2535 -4 -2690 -7 -2550 56 -2799 159 -629 668
-1145 1294 -1311 238 -64 14 -58 2702 -62 1721 -3 2478 -1 2545 7 851 97 1515
750 1625 1598 14 103 15 418 12 2567 -3 2445 -3 2450 -24 2552 -81 392 -246
705 -513 974 -265 266 -589 435 -990 516 -79 16 -267 17 -2545 18 -1353 1
-2476 0 -2495 -2z m4402 -2236 c-10 -38 -243 -261 -755 -721 -274 -246 -511
-465 -526 -487 -49 -67 -117 -237 -235 -587 -137 -404 -189 -540 -257 -675
-45 -88 -65 -115 -148 -197 -218 -215 -490 -368 -901 -507 -93 -32 -170 -61
-170 -65 0 -3 58 -56 128 -116 152 -130 202 -184 202 -215 0 -36 -36 -85 -82
-109 -89 -46 -208 -25 -438 78 -85 38 -127 45 -186 30 -30 -8 -32 -6 -44 29
-23 69 7 198 65 287 l26 39 -102 97 c-400 380 -561 838 -449 1276 89 347 357
655 740 846 257 128 442 176 733 189 l149 6 27 71 c67 172 173 297 302 359
174 82 336 72 650 -41 l127 -45 153 72 c279 130 557 249 654 279 22 7 73 31
113 52 82 45 198 89 217 82 8 -3 10 -14 7 -27z"/>
<path d="M5329 6366 c-56 -15 -89 -38 -156 -109 -49 -52 -168 -223 -193 -278
-11 -23 -22 -28 -113 -43 -242 -42 -575 -143 -765 -232 -268 -125 -496 -335
-592 -547 -50 -112 -64 -180 -64 -322 0 -146 14 -215 71 -355 65 -158 155
-295 309 -472 l85 -98 38 24 c21 14 107 59 192 101 403 202 588 321 780 502
93 88 157 217 254 513 147 449 259 740 336 872 55 94 88 128 242 255 73 60
133 113 135 118 3 11 -108 35 -308 65 -154 23 -187 24 -251 6z"/>
<path d="M3838 3646 c-36 -28 -78 -75 -78 -88 0 -2 39 -3 88 -3 83 -1 94 -4
232 -59 105 -43 162 -60 209 -64 47 -4 62 -2 57 7 -4 6 -13 11 -21 11 -42 0
-400 187 -420 220 -10 16 -19 12 -67 -24z"/>
</g>
</svg>
