<?xml version="1.0" encoding="UTF-8" standalone="no"?>
<!-- Created with Inkscape (http://www.inkscape.org/) -->

<svg
   width="195.4082mm"
   height="190.43121mm"
   viewBox="0 0 195.4082 190.43122"
   version="1.1"
   id="svg1995"
   xmlns="http://www.w3.org/2000/svg"
   xmlns:svg="http://www.w3.org/2000/svg">
  <defs
     id="defs1992" />
  <g
     id="layer1"
     transform="translate(-8.8843659,-18.233942)">
    <g
       id="g1882"
       transform="matrix(0.40630818,0,0,0.4541549,-313.79063,11.245604)">
      <path
         style="fill:#21b6ae;stroke:none;stroke-width:1px;stroke-linecap:butt;stroke-linejoin:miter;stroke-opacity:1"
         d="m 861.66244,408.32072 c -2.39007,-0.0325 -6.54216,-7.4128 -2.01827,-21.9684 0,0 0,-1e-5 0,-1e-5 1.88638,-5.78146 5.46255,-12.12678 11.20834,-17.87341 5.03877,-5.05366 11.01526,-9.43237 17.8739,-13.39372 6.90072,-4.03369 14.02395,-7.48064 21.92979,-11.06715 13.93266,-6.36114 35.35292,-15.38136 51.26326,-23.85026 0,-1e-5 2e-5,-1e-5 2e-5,-1e-5 18.53915,-9.83612 37.80037,-22.41382 55.31122,-38.40133 1.6871,-1.32114 3.3674,-4.34482 5.9049,-8.36548 2.9713,-5.11267 5.6037,-10.84726 8.3537,-17.1417 5.8307,-13.42877 10.8731,-27.26897 16.4924,-42.36745 0.6625,-1.78011 1.3263,-3.55907 1.9946,-5.34042 6.3078,-16.8999 12.5131,-33.29772 20.3414,-49.69941 3.2664,-6.88495 6.9567,-13.87146 11.4797,-20.76309 3.2359,-5.26338 7.9047,-11.069 14.5703,-16.45115 47.2148,-35.432414 88.5914,-61.955957 120.3295,-79.553849 31.2121,-17.306276 51.0765,-24.967971 53.2756,-21.4604 2.1992,3.507571 -13.5192,17.615265 -40.879,39.831852 -27.3599,22.216586 -66.2317,52.791117 -110.6751,89.278577 -1.6689,1.15814 -3.3842,4.0665 -6.0004,7.9486 -3.0418,4.93072 -5.7249,10.54057 -8.535,16.74802 -6.6747,14.84968 -12.1876,30.21863 -18.557,47.30627 -4.1702,11.24701 2.2029,-5.94191 -1.9673,5.30511 -5.5799,15.03013 -11.1345,29.7004 -17.8325,44.38624 -3.1285,6.89637 -6.6288,13.9039 -10.8962,20.86135 -3.0124,5.23296 -7.3361,11.1024 -13.5954,16.723 -21.1744,17.80952 -43.78203,30.77412 -65.35287,40.04351 -1e-5,0 -1e-5,0 -2e-5,0 -19.64261,8.41701 -40.59845,14.64354 -55.87581,19.23025 -8.2345,2.49046 -14.78422,4.45965 -21.36744,6.92002 -6.43681,2.45055 -11.41859,4.61223 -15.80155,7.40259 -4.77378,3.01756 -8.24795,6.25161 -10.76516,9.61545 0,0 0,1e-5 0,1e-5 -6.44953,8.29547 -7.81954,16.12888 -10.20961,16.09639 z"
         id="path447" />
      <path
         style="fill:#21b6ae;stroke:none;stroke-width:1px;stroke-linecap:butt;stroke-linejoin:miter;stroke-opacity:1"
         d="m 949.02534,405.83525 c -1.01457,1.98332 -8.87736,0.54604 -22.25145,-4.76939 -12.84808,-5.10637 -32.78098,-14.77547 -54.00837,-29.97555 -15.41289,-11.00561 -33.19877,-26.28306 -48.09654,-46.76171 -10.10647,-13.84649 -19.04125,-31.03476 -23.31732,-51.06129 0,-1e-5 -1e-5,-2e-5 -1e-5,-3e-5 -3.36633,-16.20791 -3.15347,-33.93353 1.79693,-51.40731 4.87264,-16.72673 13.57994,-32.2786 25.20294,-45.6502 12.53852,-14.44002 27.68211,-26.3895 44.32293,-35.94076 11.98365,-6.90812 24.61992,-12.69304 37.72859,-17.46167 7.42451,-2.70086 14.88707,-5.03445 22.32596,-7.04432 22.18219,-4.99192 44.42995,-6.72103 65.85237,-6.40949 4.41463,-12.150852 10.90013,-24.477486 21.36673,-34.735177 4.9899,-4.509475 10.734,-8.419649 17.1402,-11.461834 6.1248,-2.838024 12.4464,-4.622218 18.7075,-5.468918 14.3664,-1.709295 27.2982,0.224507 38.02,2.743471 13.1378,3.431328 27.1156,8.326223 37.9801,11.793594 0,-2e-6 0,-5e-6 10e-5,-8e-6 70.2332,-30.177935 118.3434,-47.151463 120.8096,-41.832149 2.4739,5.335934 -42.1475,31.315782 -117.9885,68.883413 0,3e-6 0,6e-6 0,1e-5 -13.932,-2.248373 -31.6694,-5.587451 -46.6637,-7.415797 -9.7919,-1.307977 -19.3174,-2.490966 -26.9161,-0.758422 -3.1529,0.629942 -6.1847,1.640698 -8.8307,3.076929 -2.8549,1.471175 -5.6612,3.662573 -8.4236,6.298668 -10.2656,8.84896 -18.5983,21.19036 -27.775,35.48014 -23.96211,3.20857 -48.80667,8.28521 -73.28754,16.12832 -6.5343,1.83379 -13.0341,3.89019 -19.43509,6.20824 -11.3036,4.09349 -22.00335,8.89584 -31.9563,14.55006 -13.76688,7.86218 -25.92481,16.93194 -35.4799,27.58063 -8.73482,9.74596 -15.41869,20.49955 -19.00773,31.65892 -3.82336,11.44148 -4.56344,23.76962 -2.87249,35.22024 0,0 1e-5,2e-5 1e-5,2e-5 2.02145,14.40916 8.23486,28.31741 15.50359,40.41522 10.83517,17.93965 25.42032,33.19775 38.16378,45.09454 17.00345,15.82795 35.47558,29.50478 45.41556,37.20228 11.06939,8.57211 16.98802,13.83601 15.97345,15.81933 z"
         id="path579" />
      <path
         style="fill:#21b6ae;stroke:none;stroke-width:1px;stroke-linecap:butt;stroke-linejoin:miter;stroke-opacity:1"
         d="m 861.66244,408.32072 c -0.97334,-0.51483 -1.53826,-1.90741 -1.12377,-4.15341 0.39473,-2.1389 1.87558,-5.44811 5.69267,-8.24663 3.40754,-2.27106 7.85296,-3.72901 12.58166,-3.73359 4.45799,-0.10371 8.88803,0.53919 13.27419,1.65515 4.42201,1.08868 8.64396,2.49837 12.9705,4.06438 0.95516,0.34349 1.90353,0.69111 2.85241,1.04227 3.43853,1.27253 6.22881,2.34311 9.27965,3.42022 4.0891,1.41883 7.34586,2.51331 10.62503,3.22807 3.60882,0.75809 6.36004,1.13154 9.02208,1.01574 0,0 10e-6,0 10e-6,0 5.67782,-0.0355 10.36922,-2.41043 12.18849,-0.77769 1.24945,1.12135 1.19955,7.7876 -8.19978,12.83349 0,0 0,0 0,0 -3.9815,2.05994 -8.9495,3.33867 -14.40858,3.31407 -4.82167,0.0141 -9.67873,-0.70853 -14.53434,-1.98569 -3.56815,-0.92214 -7.049,-2.06415 -10.52299,-3.35008 -0.99293,-0.36754 -1.967,-0.74001 -2.91932,-1.11255 -4.30644,-1.67381 -8.17072,-3.34871 -11.70515,-4.77138 -3.7578,-1.46735 -6.38774,-2.56476 -9.18903,-3.29052 -2.7909,-0.64304 -4.5562,-1.11778 -6.35541,-0.98847 -3.83636,-0.23636 -7.58163,2.86628 -9.52832,1.83662 z"
         id="path1235" />
    </g>
  </g>
</svg>
