<?xml version="1.0" encoding="UTF-8" standalone="no"?>
<!-- Created with Inkscape (http://www.inkscape.org/) -->

<svg
   width="186.54936mm"
   height="173.26714mm"
   viewBox="0 0 186.54937 173.26714"
   version="1.1"
   id="svg1995"
   xmlns="http://www.w3.org/2000/svg"
   xmlns:svg="http://www.w3.org/2000/svg">
  <defs
     id="defs1992" />
  <g
     id="layer1"
     transform="translate(-8.3429465,-1.8239998)">
    <g
       id="g1882"
       transform="matrix(0.40630818,0,0,0.4541549,-313.79063,-18.554571)">
      <path
         style="fill:#1a1a1a;stroke:none;stroke-width:1px;stroke-linecap:butt;stroke-linejoin:miter;stroke-opacity:1"
         d="m 861.66244,408.32072 c -1.27875,-0.0174 -2.60772,-1.73537 -3.42768,-5.35467 -0.7713,-3.40449 -1.15557,-9.38271 1.29452,-16.51131 0,0 10e-6,-1e-5 10e-6,-1e-5 2.10249,-5.71214 6.00979,-11.7986 12.03688,-16.98271 5.34769,-4.63931 11.47012,-8.44573 18.31083,-11.84613 7.01477,-3.54603 13.85746,-6.4294 21.60639,-9.67962 14.51366,-6.14921 32.69346,-13.78277 47.8556,-23.3101 17.07205,-10.45328 33.56064,-24.69279 47.66221,-42.73523 7.716,-12.59748 16.0963,-25.54482 25.2309,-38.37981 6.7311,-9.458 13.657,-18.55374 20.8552,-27.28464 12.4751,-15.2377 25.6936,-29.12696 40.8187,-40.96551 10.8729,-8.67575 23.1717,-15.84078 36.9589,-20.06519 5.6731,-1.68666 11.5528,-2.67188 17.4957,-2.8956 5.6139,-0.1907 11.0863,0.37018 16.2789,1.56417 10.8627,2.63715 19.7957,7.49105 26.833,12.72369 8.3972,6.18114 15.2125,13.01387 20.5498,18.80569 6.1177,6.59089 13.7021,15.59373 17.4308,19.94879 10.1675,11.79618 16.5914,18.60141 15.306,20.99436 -1.4194,2.64256 -11.2462,0.88373 -26.0247,-8.41894 -7.3103,-4.57463 -13.2046,-9.0482 -21.9668,-15.40888 -6.0247,-4.34471 -13.0423,-9.38333 -19.9299,-12.95314 -5.7524,-2.91931 -11.9441,-5.42559 -17.7441,-5.89308 -2.7778,-0.28947 -5.6514,-0.24465 -8.4884,0.16631 -3.0324,0.41538 -6.188,1.31175 -9.4267,2.57077 -8.251,3.06135 -16.1552,8.87591 -24.8586,16.23181 -11.9217,10.31191 -22.6913,22.73335 -34.1421,37.10322 -6.6695,8.42976 -13.2024,17.2082 -19.7224,26.38156 -8.8218,12.41179 -17.2795,25.06949 -25.3106,37.33768 -18.1628,22.07199 -39.53781,38.78071 -61.43515,50.25913 -19.57123,10.00395 -39.56767,15.98588 -55.46995,20.10879 -8.73615,2.29274 -14.477,3.61712 -21.56871,5.68525 -6.52316,1.96037 -11.39906,3.52969 -15.83345,5.82034 -4.65428,2.39229 -8.06016,4.97289 -10.54725,7.88386 0,0 0,0 0,0 -3.0433,3.3507 -5.25917,8.04606 -6.60611,10.55932 -1.53585,2.86574 -2.70752,4.55769 -4.02174,4.53983 z"
         id="path447" />
      <path
         style="fill:#1a1a1a;stroke:none;stroke-width:1px;stroke-linecap:butt;stroke-linejoin:miter;stroke-opacity:1"
         d="m 949.02534,405.83525 c -0.97507,1.90609 -8.76852,0.41406 -22.08827,-4.94431 -12.77465,-5.13907 -32.70752,-14.8579 -53.93099,-30.09628 -15.34727,-10.98937 -33.11065,-26.25283 -47.98516,-46.70174 -10.06577,-13.79344 -18.99298,-30.92787 -23.26924,-50.89879 -3.36123,-16.12745 -3.17559,-33.79346 1.74245,-51.2293 4.82947,-16.65801 13.4838,-32.18538 25.07204,-45.56604 12.47099,-14.41518 27.56202,-26.38648 44.1902,-35.98674 18.64591,-10.81155 38.86614,-18.89705 59.9649,-24.67713 2.14315,-0.49108 4.29595,-0.95371 6.45809,-1.38831 19.88181,-3.9963 39.82492,-5.47606 59.23527,-5.24764 5.65237,-14.479384 14.29417,-27.752193 26.21677,-38.128532 12.4718,-10.35416 27.3409,-17.47448 43.2031,-20.409649 16.0713,-2.76086 31.8392,-0.921649 45.7364,4.049251 16.8814,6.390062 30.9506,16.292568 42.1066,27.109557 60.0098,86.355433 96.0218,144.260603 90.8768,148.080243 -5.1379,3.81439 -50.0077,-47.19667 -113.6308,-127.38671 -8.8114,-7.176038 -18.9792,-13.353185 -29.8357,-16.151628 -9.2277,-2.688726 -19.344,-3.472449 -28.6233,-1.341834 -9.2533,1.911217 -18.4271,6.910517 -26.5085,13.819978 -12.0767,9.781374 -22.439,22.778504 -31.7812,37.472364 -21.88044,2.86436 -44.24797,7.23076 -66.29056,13.71698 -2.39842,0.70576 -4.78389,1.43392 -7.15605,2.18488 -18.57241,5.13246 -35.91844,11.80867 -51.48103,20.58716 -13.82515,7.83929 -26.01852,16.89352 -35.61264,27.53464 -8.79348,9.76401 -15.51565,20.5455 -19.13863,31.7431 -3.86428,11.50752 -4.61731,23.89821 -2.92697,35.39822 2.02699,14.49652 8.26615,28.46245 15.55168,40.57779 10.8841,18.00817 25.52077,33.28554 38.27518,45.15451 17.10914,15.87698 35.62056,29.49109 45.58811,37.13562 11.0937,8.50819 17.01652,13.68425 16.04145,15.59034 z"
         id="path579" />
      <path
         style="fill:#1a1a1a;stroke:none;stroke-width:1px;stroke-linecap:butt;stroke-linejoin:miter;stroke-opacity:1"
         d="m 861.66244,408.32072 c -0.97334,-0.51483 -1.53826,-1.90741 -1.12377,-4.15341 0.39473,-2.1389 1.87558,-5.44811 5.69267,-8.24663 3.40754,-2.27106 7.85296,-3.72901 12.58166,-3.73359 4.45799,-0.10371 8.88803,0.53919 13.27419,1.65515 4.42201,1.08868 8.64396,2.49837 12.9705,4.06438 0.95516,0.34349 1.90353,0.69111 2.85241,1.04227 3.43853,1.27253 6.22881,2.34311 9.27965,3.42022 4.0891,1.41883 7.34586,2.51331 10.62503,3.22807 3.60882,0.75809 6.36004,1.13154 9.02208,1.01574 0,0 10e-6,0 10e-6,0 5.67782,-0.0355 10.36922,-2.41043 12.18849,-0.77769 1.24945,1.12135 1.19955,7.7876 -8.19978,12.83349 0,0 0,0 0,0 -3.9815,2.05994 -8.9495,3.33867 -14.40858,3.31407 -4.82167,0.0141 -9.67873,-0.70853 -14.53434,-1.98569 -3.56815,-0.92214 -7.049,-2.06415 -10.52299,-3.35008 -0.99293,-0.36754 -1.967,-0.74001 -2.91932,-1.11255 -4.30644,-1.67381 -8.17072,-3.34871 -11.70515,-4.77138 -3.7578,-1.46735 -6.38774,-2.56476 -9.18903,-3.29052 -2.7909,-0.64304 -4.5562,-1.11778 -6.35541,-0.98847 -3.83636,-0.23636 -7.58163,2.86628 -9.52832,1.83662 z"
         id="path1235" />
    </g>
  </g>
</svg>
